<svg height="488pt" viewBox="-36 0 488 488" width="488pt" xmlns="http://www.w3.org/2000/svg" xmlns:xlink="http://www.w3.org/1999/xlink"><linearGradient id="a" gradientUnits="userSpaceOnUse" x1="208" x2="208" y1="488" y2="0"><stop offset="0" stop-color="#9f2fff"/><stop offset="1" stop-color="#0bb1d3"/></linearGradient><path d="m232 312h72v48h-16v-32h-40v160h-80v-160h-40v32h-16v-48h56v-32h-35.3125l75.3125-75.3125 75.3125 75.3125h-35.3125v16h-16v-32h12.6875l-36.6875-36.6875-36.6875 36.6875h12.6875v208h48zm184-48c0 29.753906-20.441406 54.761719-48 61.894531v66.105469h-16v-64h-16v96h-16v-112h32c26.472656 0 48-21.527344 48-48s-21.527344-48-48-48c-18.441406 0-35.472656 10.769531-43.382812 27.433594l-14.457032-6.859375c5.574219-11.734375 14.59375-21.183594 25.433594-27.574219-3.496094-32.007812-30.671875-57-63.59375-57-15.710938 0-30.863281 5.832031-42.664062 16.398438l-5.335938 4.785156-5.335938-4.792969c-11.800781-10.558594-26.953124-16.390625-42.664062-16.390625-32.921875 0-60.097656 24.992188-63.601562 56.992188 10.839843 6.390624 19.859374 15.839843 25.433593 27.574218l-14.457031 6.859375c-7.902344-16.65625-24.933594-27.425781-43.375-27.425781-26.472656 0-48 21.527344-48 48s21.527344 48 48 48h32v112h-16v-96h-16v64h-16v-66.105469c-27.558594-7.132812-48-32.140625-48-61.894531 0-20.160156 9.390625-38.144531 24-49.878906v-68.898438l30.265625-5.054687c3.359375-11.808594 8.070313-23.167969 14.046875-33.886719l-17.839844-24.96875 54.839844-54.839844 24.976562 17.839844c10.710938-5.976562 22.070313-10.679688 33.894532-14.039062l5.039062-30.273438h77.554688l5.039062 30.273438c11.824219 3.359374 23.183594 8.0625 33.894532 14.039062l24.976562-17.839844 54.839844 54.839844-17.839844 24.96875c5.976562 10.726562 10.6875 22.085938 14.046875 33.886719l30.265625 5.054687v68.898438c14.609375 11.734375 24 29.71875 24 49.878906zm-154.144531-127.703125c-13.472657-15.257813-32.839844-24.296875-53.855469-24.296875s-40.382812 9.039062-53.855469 24.296875c1.945313-.144531 3.878907-.296875 5.855469-.296875 17.359375 0 34.167969 5.671875 48 16.097656 13.832031-10.425781 30.640625-16.097656 48-16.097656 1.976562 0 3.910156.152344 5.855469.296875zm46 18.902344c-12.527344-43.367188-52.511719-75.199219-99.855469-75.199219s-87.328125 31.832031-99.855469 75.199219c6.777344-5.792969 14.535157-10.4375 22.984375-13.71875 15.535156-28.074219 44.613282-45.480469 76.871094-45.480469s61.335938 17.40625 76.871094 45.480469c8.449218 3.28125 16.199218 7.925781 22.984375 13.71875zm68.144531 3.578125-27.167969-4.53125-1.265625-5.09375c-3.4375-13.808594-8.902344-26.992188-16.246094-39.191406l-2.703124-4.496094 16.007812-22.410156-35.664062-35.679688-22.417969 16.007812-4.496094-2.710937c-12.175781-7.328125-25.359375-12.800781-39.199219-16.230469l-5.09375-1.273437-4.53125-27.167969h-50.445312l-4.53125 27.167969-5.09375 1.273437c-13.832032 3.4375-27.023438 8.902344-39.199219 16.230469l-4.496094 2.710937-22.417969-16.007812-35.664062 35.671875 16.007812 22.410156-2.703124 4.496094c-7.34375 12.199219-12.808594 25.390625-16.246094 39.191406l-1.265625 5.09375-27.167969 4.539063v45.933594c7.414062-3.015626 15.511719-4.710938 24-4.710938 5.902344 0 11.6875.871094 17.238281 2.441406 1.296875-7.546875 3.648438-14.722656 6.914063-21.394531 1.582031-64.800781 54.671875-117.046875 119.847656-117.046875s118.265625 52.246094 119.847656 117.046875c3.257813 6.671875 5.617188 13.839844 6.914063 21.394531 5.550781-1.570312 11.335937-2.441406 17.238281-2.441406 8.488281 0 16.585938 1.695312 24 4.710938zm-296 297.222656h16v-16h-16zm0 32h16v-16h-16zm32-96h16v-16h-16zm0 32h16v-16h-16zm176-32h16v-16h-16zm0 32h16v-16h-16zm32 32h16v-16h-16zm0 32h16v-16h-16zm-120-440h16v-16h-16zm99.929688 34.769531 11.308593 11.308594 11.3125-11.308594-11.3125-11.3125zm-205.066407-.59375 11.3125 11.3125 11.3125-11.3125-11.3125-11.3125zm-38.863281 109.824219h16v-16h-16zm288 0h16v-16h-16zm8 232h16v-16h-16zm-304 0h16v-16h-16zm0 0" fill="url(#a)"/></svg>