<svg height="496pt" viewBox="0 0 496 496" width="496pt" xmlns="http://www.w3.org/2000/svg" xmlns:xlink="http://www.w3.org/1999/xlink"><linearGradient id="a" gradientUnits="userSpaceOnUse" x1="247.999445" x2="247.999445" y1="496" y2="0"><stop offset="0" stop-color="#9f2fff"/><stop offset="1" stop-color="#0bb1d3"/></linearGradient><path d="m176 32v16c-26.472656 0-48 21.527344-48 48h-16c0-35.289062 28.710938-64 64-64zm320 128c0 34.191406-23.984375 62.839844-56 70.144531v185.855469c0 22.054688-17.945312 40-40 40h-88v24h64v16h-256v-16h64v-24h-88c-22.054688 0-40-17.945312-40-40v-185.878906c-31.570312-7.273438-55.511719-35.449219-55.9921875-69.082032-.4414065-30.855468 18.6562495-57.878906 48.6484375-68.847656 10.269531-3.765625 20.902344-4.933594 31.71875-3.617187 3.816406-49.460938 45.199219-88.574219 95.625-88.574219 28.351562 0 54.261719 12.183594 72.101562 32.558594 18.128907-20.527344 44.28125-32.558594 71.898438-32.558594 50.230469 0 91.503906 38.808594 95.589844 88h8.410156c39.695312 0 72 32.304688 72 72zm-72 256v-24h-352v24c0 13.230469 10.765625 24 24 24h104v40h96v-24h-48v-16h152c13.230469 0 24-10.769531 24-24zm56-256c0-30.878906-25.121094-56-56-56h-56v-16h31.589844c-4.023438-40.367188-38.175782-72-79.589844-72-24.183594 0-46.960938 11.152344-62.113281 29.910156 2.90625 4.777344 5.472656 9.824219 7.570312 15.1875l-14.90625 5.824219c-12.078125-30.9375-41.34375-50.921875-74.550781-50.921875-44.113281 0-80 35.886719-80 80 0 7.414062 1.007812 14.753906 3.007812 21.824219l-15.398437 4.351562c-1.601563-5.664062-2.625-11.488281-3.160156-17.367187-9.035157-1.449219-17.707031-.738282-26.296875 2.40625-23.511719 8.601562-38.488282 29.640625-38.144532 53.601562.429688 30.429688 25.550782 55.183594 55.992188 55.183594h152v-32h-40l64-85.335938 64 85.335938h-40v144h-16v-160h24l-32-42.664062-32 42.664062h24v64h-168v144h352v-144h-136v-16h136c30.878906 0 56-25.121094 56-56zm-224 200h16v-16h-16zm32 0h16v-16h-16zm48-16h-16v16h16zm-144 80h112v-16h-112zm0 0" fill="url(#a)"/></svg>