<svg height="496pt" viewBox="-64 0 496 496" width="496pt" xmlns="http://www.w3.org/2000/svg" xmlns:xlink="http://www.w3.org/1999/xlink"><linearGradient id="a" gradientTransform="matrix(8 0 0 -8 -72 520)" gradientUnits="userSpaceOnUse" x1="32" x2="32" y1="3" y2="65"><stop offset="0" stop-color="#9f2fff"/><stop offset="1" stop-color="#0bb1d3"/></linearGradient><path d="m40 496h288c22.054688 0 40-17.945312 40-40v-416c0-22.054688-17.945312-40-40-40h-288c-22.054688 0-40 17.945312-40 40v416c0 22.054688 17.945312 40 40 40zm288-16h-288c-13.230469 0-24-10.769531-24-24v-24h336v24c0 13.230469-10.769531 24-24 24zm-312-64v-352h336v352zm24-400h288c13.230469 0 24 10.769531 24 24v8h-336v-8c0-13.230469 10.769531-24 24-24zm120 432h48v16h-48zm-128-368v320h304v-320zm288 304h-272v-288h272zm-168-48h64v-128h39.367188l-71.367188-101.953125-71.367188 101.953125h39.367188zm-8.632812-144 40.632812-58.046875 40.632812 58.046875h-24.632812v128h-32v-128zm144.632812 176h-208v-136h16v120h176v-120h16zm0 0" fill="url(#a)"/></svg>